<svg width="321" height="320" viewBox="0 0 321 320" fill="none" xmlns="http://www.w3.org/2000/svg">
<path d="M240.46 293.333H80.4601C73.3877 293.333 66.6049 290.524 61.6039 285.523C56.603 280.522 53.7935 273.739 53.7935 266.667V53.3333C53.7935 46.2609 56.603 39.4781 61.6039 34.4771C66.6049 29.4762 73.3877 26.6666 80.4601 26.6666H173.793C173.913 26.651 174.034 26.651 174.153 26.6666H174.233C174.359 26.706 174.489 26.7328 174.62 26.7466C175.793 26.8266 176.953 27.0533 178.073 27.4266H178.633C178.88 27.5989 179.111 27.7906 179.327 28C180.779 28.6459 182.103 29.5493 183.233 30.6666L263.233 110.667C264.351 111.797 265.254 113.121 265.9 114.573C266.016 114.862 266.119 115.155 266.207 115.453L266.34 115.827C266.713 116.933 266.927 118.093 266.993 119.267C267.005 119.399 267.037 119.53 267.087 119.653V119.733C267.108 119.821 267.122 119.91 267.127 120V266.667C267.127 273.739 264.317 280.522 259.316 285.523C254.315 290.524 247.533 293.333 240.46 293.333ZM187.487 232C187.38 235.96 188.3 239.867 190.153 243.36C191.913 246.493 194.527 249.067 197.7 250.76C200.993 252.493 204.647 253.373 208.367 253.333C213.367 253.6 218.26 251.88 222.02 248.573C223.75 246.847 225.099 244.776 225.979 242.495C226.858 240.215 227.249 237.775 227.127 235.333C227.309 230.762 225.895 226.269 223.127 222.627C219.651 218.757 215.232 215.854 210.3 214.2C207.697 213.158 205.306 211.649 203.247 209.747C201.984 208.445 201.273 206.707 201.26 204.893C201.164 202.922 201.8 200.984 203.047 199.453C203.671 198.763 204.442 198.221 205.302 197.866C206.162 197.511 207.091 197.351 208.02 197.4C209.016 197.345 210.011 197.536 210.916 197.957C211.82 198.378 212.607 199.016 213.207 199.813C214.55 201.851 215.192 204.271 215.033 206.707H227.127C227.191 203.092 226.381 199.515 224.767 196.28C223.296 193.311 220.975 190.847 218.1 189.2C214.36 187.178 210.097 186.331 205.868 186.769C201.639 187.206 197.64 188.909 194.393 191.653C192.614 193.334 191.216 195.378 190.296 197.646C189.376 199.915 188.954 202.354 189.06 204.8C188.993 209.067 190.393 213.227 193.06 216.56C196.647 220.48 201.127 223.453 206.14 225.213C208.673 226.173 210.993 227.613 212.98 229.44C214.36 231.112 215.043 233.251 214.887 235.413C214.887 240.227 212.74 242.667 208.5 242.667C207.269 242.789 206.026 242.624 204.869 242.184C203.712 241.744 202.673 241.042 201.833 240.133C200.276 237.711 199.56 234.843 199.793 231.973L187.487 232ZM141.58 232C141.473 235.96 142.393 239.867 144.247 243.36C146.007 246.493 148.62 249.067 151.793 250.76C155.087 252.493 158.74 253.373 162.46 253.333C167.46 253.6 172.353 251.88 176.113 248.573C179.58 245.067 181.407 240.253 181.127 235.333C181.309 230.762 179.895 226.269 177.127 222.627C173.651 218.757 169.232 215.854 164.3 214.2C161.697 213.158 159.306 211.649 157.247 209.747C155.989 208.442 155.278 206.705 155.26 204.893C155.164 202.922 155.8 200.984 157.047 199.453C157.673 198.761 158.445 198.218 159.308 197.863C160.171 197.508 161.102 197.349 162.033 197.4C163.03 197.345 164.024 197.536 164.929 197.957C165.834 198.378 166.621 199.016 167.22 199.813C168.567 201.853 169.22 204.267 169.047 206.707H181.22C181.276 203.093 180.467 199.518 178.86 196.28C177.384 193.315 175.065 190.852 172.193 189.2C169.169 187.481 165.738 186.606 162.26 186.667C157.193 186.493 152.26 188.28 148.487 191.653C146.707 193.334 145.31 195.378 144.389 197.646C143.469 199.915 143.048 202.354 143.153 204.8C143.073 209.067 144.487 213.227 147.153 216.56C150.727 220.48 155.22 223.453 160.22 225.213C162.753 226.173 165.087 227.613 167.073 229.44C168.454 231.112 169.137 233.251 168.98 235.413C168.98 240.227 166.833 242.667 162.58 242.667C161.349 242.789 160.106 242.624 158.949 242.184C157.792 241.744 156.753 241.042 155.913 240.133C154.334 237.728 153.589 234.87 153.793 232H141.58V232ZM115.127 186.667C112.123 186.536 109.131 187.127 106.402 188.391C103.674 189.656 101.289 191.556 99.4468 193.933C95.3135 199.973 93.3401 207.213 93.7935 214.52V225.44C93.345 232.738 95.252 239.987 99.2335 246.12C101.077 248.501 103.47 250.401 106.208 251.657C108.945 252.913 111.946 253.488 114.953 253.333C120.567 253.667 126.06 251.6 130.06 247.64C133.66 243.373 135.673 237.987 135.78 232.4V233.107V230.8H123.673C123.82 234 123.1 237.173 121.593 240C120.762 240.917 119.723 241.622 118.563 242.056C117.403 242.49 116.156 242.64 114.927 242.493C113.548 242.606 112.165 242.327 110.938 241.688C109.712 241.048 108.691 240.075 107.993 238.88C106.35 234.638 105.672 230.083 106.007 225.547V213.333C105.807 209.2 106.54 205.067 108.167 201.267C108.846 200.05 109.861 199.054 111.09 198.397C112.319 197.74 113.711 197.449 115.1 197.56C116.336 197.416 117.587 197.585 118.74 198.051C119.894 198.517 120.911 199.265 121.7 200.227C123.193 203.147 123.873 206.4 123.687 209.667H135.927C135.889 203.504 133.833 197.523 130.073 192.64C128.182 190.597 125.859 189.001 123.274 187.968C120.688 186.934 117.905 186.49 115.127 186.667V186.667ZM173.793 53.3333V120H240.46L173.793 53.3333Z" fill="black"/>
</svg>
