<svg width="399" height="226" viewBox="0 0 399 226" fill="none" xmlns="http://www.w3.org/2000/svg">
<g clip-path="url(#clip0_260_40)">
<path d="M380.879 43.1198L212.529 211.971C210.525 213.975 208.354 215.391 206.015 216.22C203.677 217.061 201.172 217.482 198.5 217.482C195.828 217.482 193.322 217.061 190.984 216.22C188.646 215.391 186.475 213.975 184.471 211.971L15.6196 43.1198C10.9432 38.4434 8.60498 32.5979 8.60498 25.5834C8.60498 18.5688 11.1102 12.5563 16.1206 7.54586C21.131 2.53544 26.9765 0.0302348 33.6571 0.0302348C40.3376 0.0302348 46.1831 2.53544 51.1935 7.54586L198.5 154.852L345.806 7.54586C350.482 2.86947 356.241 0.531269 363.082 0.531269C369.936 0.531269 375.869 3.03648 380.879 8.04689C385.889 13.0573 388.395 18.9028 388.395 25.5834C388.395 32.2639 385.889 38.1094 380.879 43.1198V43.1198Z" fill="#333333"/>
</g>
<defs>
<clipPath id="clip0_260_40">
<rect width="226" height="399" fill="white" transform="translate(0 226) rotate(-90)"/>
</clipPath>
</defs>
</svg>
