<svg width="321" height="320" viewBox="0 0 321 320" fill="none" xmlns="http://www.w3.org/2000/svg">
<path d="M240.46 293.333H80.4601C73.3877 293.333 66.6049 290.524 61.6039 285.523C56.603 280.522 53.7935 273.739 53.7935 266.667V53.3333C53.7935 46.2609 56.603 39.4781 61.6039 34.4771C66.6049 29.4762 73.3877 26.6666 80.4601 26.6666H173.793C173.913 26.651 174.034 26.651 174.153 26.6666H174.233C174.359 26.706 174.489 26.7328 174.62 26.7466C175.793 26.8266 176.953 27.0533 178.073 27.4266H178.633C178.88 27.5989 179.111 27.7906 179.327 28C180.779 28.6459 182.103 29.5493 183.233 30.6666L263.233 110.667C264.351 111.797 265.254 113.121 265.9 114.573C266.016 114.862 266.119 115.155 266.207 115.453L266.34 115.827C266.713 116.933 266.927 118.093 266.993 119.267C267.005 119.399 267.037 119.53 267.087 119.653V119.733C267.108 119.821 267.122 119.91 267.127 120V266.667C267.127 273.739 264.317 280.522 259.316 285.523C254.315 290.524 247.533 293.333 240.46 293.333ZM217.273 200V253.333H247.127V244.4H228.113V200H217.273V200ZM198.607 216.773L197.62 238.893V253.333H208.487V200H194.393L184.3 238.587L174.167 200H160.02V253.333H170.86V238.893L169.793 216.667L180.46 253.333H187.847L198.607 216.773V216.773ZM116.62 200V208.973H129.66V253.333H140.527V208.973H153.793V200H116.62ZM84.6201 230.52H100.62V253.333H111.42V200H100.62V221.573H84.6201V200H73.7935V253.333H84.6201V230.52V230.52ZM173.793 53.3333V120H240.46L173.793 53.3333Z" fill="black"/>
</svg>
