<svg width="457" height="104" viewBox="0 0 457 104" fill="none" xmlns="http://www.w3.org/2000/svg">
<g clip-path="url(#clip0_256_28)">
<path fill-rule="evenodd" clip-rule="evenodd" d="M437.11 7.75159L456.229 7.85738C456.229 7.85738 420.683 56.2389 417.78 60.1819C416.838 61.4586 415.406 62.8357 414.68 64.5428C412.844 68.8337 410.959 78.2466 410.959 78.2466L393.465 78.3344C393.465 78.3344 396.187 68.5226 396.075 63.2966C395.977 58.7313 393.656 54.1714 392.355 49.5928C391.039 44.9576 389.253 35.8881 389.253 35.8881H407.238L409.719 45.855L437.11 7.75159" fill="#1A1918"/>
<path fill-rule="evenodd" clip-rule="evenodd" d="M400.906 17.9553C404.435 20.0918 406.6 31.8778 406.6 31.8778C406.6 31.8778 388.138 32.1513 378.091 32.1513H369.409L358.866 78.2466H342.743C342.743 78.2466 352.777 28.1527 355.146 19.0706C355.913 16.1299 360.405 16.6347 367.989 16.6347H380.1C387.921 16.6347 397.062 15.6314 400.906 17.9553M325.844 40.4049C325.844 40.4049 326.346 37.4463 324.139 34.0197C322.253 31.0987 320.511 30.4192 315.549 30.2632C301.541 29.8212 301.813 40.2489 301.813 40.2489L325.844 40.4049ZM341.037 28.4629C343.09 35.9016 339.177 53.3798 339.177 53.3798C339.177 53.3798 318.742 53.0374 307.549 53.3798C304.069 53.4865 299.904 52.9997 298.867 54.626C297.41 56.9051 299.4 60.4133 301.087 61.8953C303.028 63.6014 306.81 63.796 308.17 63.969C317.254 65.1283 336.268 64.2685 336.268 64.2685L332.974 78.9181C332.974 78.9181 306.105 80.2719 292.666 77.0497C290.012 76.4149 287.524 75.132 285.844 73.3129C285.385 72.8153 284.987 72.1366 284.553 71.5503C284.207 71.0823 283.196 69.5447 282.743 68.3289C279.673 60.1129 283.103 44.3731 286.464 35.9383C286.854 34.9611 287.344 33.7212 287.86 32.6677C288.504 31.3543 289.05 29.8714 289.565 29.086C289.911 28.5445 290.341 28.1957 290.7 27.6847C291.115 27.0804 291.598 26.4949 292.045 25.9723C293.286 24.527 294.694 23.5049 296.387 22.2354C301.986 18.0234 312.119 14.7537 324.293 16.0053C328.877 16.4787 335.798 18.1229 339.177 22.8576C340.082 24.1218 340.529 26.6321 341.037 28.4638V28.4629ZM267.084 16.5773L282.719 16.4849C282.719 16.4849 274.006 58.0016 269.565 78.2466H251.58C239.01 78.2466 227.817 79.8102 223.054 70.7711C218.434 61.9948 222.843 47.5621 224.914 37.7565C226.378 30.8172 229.461 16.6338 229.461 16.6338L245.659 16.4849C245.659 16.4849 241.082 38.567 239.177 49.5928C238.495 53.5421 237.089 57.261 238.558 60.1811C239.953 62.9604 241.907 63.1594 247.859 63.2966C249.745 63.3414 255.922 63.2966 255.922 63.2966L267.084 16.5773M193.907 46.4773C195.544 40.6354 197.931 34.3003 197.628 29.0358C197.299 23.4054 192.599 18.2789 189.566 17.2013C180.432 13.962 171.88 18.4905 168.481 22.1843C164.084 26.9683 162.595 32.5565 161.039 40.2498C159.88 45.9609 158.93 51.9902 161.039 56.4443C164.771 64.3187 176.412 62.5991 188.946 62.6744C190.806 57.6663 192.344 52.0413 193.907 46.4773V46.4773ZM215.612 23.4305C217.398 36.4736 210.546 50.8704 205.826 63.3898C210.639 63.8265 214.856 63.3226 215.16 63.683C215.476 64.1501 211.934 78.6267 210.7 78.6644C206.88 78.7639 194.224 78.8697 188.946 78.8697C171.724 78.8697 155.613 79.9967 147.397 71.3952C144.06 67.9004 141.753 61.9069 141.194 57.6905C140.264 50.6516 141.43 42.9018 143.055 36.5121C144.525 30.7428 146.409 25.2989 149.257 20.315C156.494 7.62701 169.083 -1.79126 190.186 0.382876C194.279 0.806048 200.157 2.60632 203.83 4.74281C204.083 4.89253 204.971 5.6026 205.175 5.72722C210.136 8.89832 214.657 16.4661 215.612 23.4305V23.4305ZM139.414 16.6526C138.373 21.4178 137.331 26.8195 136.233 31.5282H118.869C120.214 26.3085 121.244 21.1192 122.59 16.5782C128.146 16.5782 133.313 16.6526 139.415 16.6526M118.249 35.889H134.993C132.804 48.0606 128.469 67.6942 125.071 81.3612C122.944 89.9143 121.523 96.1552 115.768 100.671C115.253 101.076 114.956 100.884 114.527 101.294C113.467 102.31 108.562 103.488 105.846 103.786C101.431 104.266 96.4386 103.849 91.0117 103.736C92.4318 98.523 94.0384 92.2624 95.3041 87.5896C108.532 89.198 108.867 76.6391 111.428 64.5428C112.909 57.5533 117.4 38.6916 118.249 35.889" fill="#1A1918"/>
<path fill-rule="evenodd" clip-rule="evenodd" d="M79.1791 67.6583L78.8203 68.5917C72.7061 80.5517 61.8712 87.8899 46.4171 88.2136C39.1926 88.3624 32.3091 86.5012 27.8123 84.4759C18.1083 80.098 9.94566 71.9752 5.48814 63.2975C-0.906259 50.8579 -2.05946 33.5526 11.2363 20.6279C11.4416 20.6279 9.62344 23.4306 9.82873 23.4306L9.46278 24.6266C-0.118116 54.757 29.4002 80.5768 58.0947 77.6235C64.9907 76.9143 73.7844 73.121 79.1791 67.6583Z" fill="#21609B"/>
<path fill-rule="evenodd" clip-rule="evenodd" d="M61.8145 55.199C69.0337 55.2492 76.5741 51.8602 81.0397 47.1013C77.1329 57.062 65.8213 63.4652 50.6529 61.4282C37.9515 59.7212 25.8527 46.8834 24.6067 34.0206C23.6954 24.6579 26.9434 19.0706 32.2962 12.2936C30.4361 15.8376 29.7408 18.5721 29.5676 20.3159C27.5343 40.5672 45.6732 55.0932 61.8145 55.199" fill="#21609B"/>
<path fill-rule="evenodd" clip-rule="evenodd" d="M80.3148 30.0462C79.1929 32.6318 72.7315 37.5145 69.8779 38.1241C58.5788 40.5421 51.3427 35.1601 47.552 29.0367C46.9888 28.1213 45.9471 25.6235 45.7606 24.9878C44.2905 19.9671 44.9662 12.3734 49.3514 8.44287C48.0304 12.1815 47.8376 16.5217 48.5329 19.344C48.9542 21.0511 50.2377 24.0294 51.5222 25.9032C53.8589 29.3173 55.3406 30.1466 58.3432 31.9585C59.6955 32.7744 61.1459 33.4289 61.7725 33.6091C64.6189 34.45 70.6286 36.6681 80.3157 30.0462" fill="#21609B"/>
</g>
<defs>
<clipPath id="clip0_256_28">
<rect width="457" height="104" fill="white"/>
</clipPath>
</defs>
</svg>
