<svg width="320" height="320" viewBox="0 0 320 320" fill="none" xmlns="http://www.w3.org/2000/svg">
<path d="M0 0H320V320H0V0ZM293.8 243.7C291.46 229.06 281.92 216.82 253.75 205.37C243.96 200.79 233.02 197.56 229.79 190.16C228.59 185.78 228.38 183.39 229.16 180.78C231.19 172.13 241.35 169.58 249.37 171.98C254.58 173.59 259.37 177.55 262.39 183.96C276.19 174.95 276.19 174.95 285.78 168.96C282.19 163.39 280.42 160.94 277.97 158.6C269.58 149.17 258.39 144.38 240.21 144.8L230.78 146C221.77 148.19 213.18 152.98 207.97 159.39C192.81 176.58 197.19 206.58 215.57 219.03C233.75 232.62 260.36 235.59 263.8 248.41C266.98 264.04 252.19 269.04 237.55 267.21C226.77 264.81 220.78 259.4 214.16 249.4L189.78 263.41C192.54 269.82 195.77 272.58 200.56 278.2C223.74 301.59 281.76 300.39 292.17 264.81C292.53 263.61 295.35 255.38 293.16 242.83L293.8 243.7ZM174.01 147.08H144.06C144.06 172.91 143.9 198.59 143.9 224.48C143.9 240.89 144.73 255.99 142.08 260.63C137.65 269.8 126.35 268.65 121.19 267.04C115.93 264.44 113.22 260.84 110.15 255.63C109.26 254.22 108.64 253.03 108.43 253.03L84.11 268.03C88.17 276.42 94.11 283.66 101.77 288.24C113.18 295.06 128.49 297.25 144.53 293.66C154.95 290.64 163.96 284.44 168.64 274.86C175.46 262.46 174 247.26 173.95 230.22C174.11 202.82 173.95 175.43 173.95 147.82L174.01 147.08Z" fill="black"/>
</svg>
