<svg width="320" height="320" viewBox="0 0 320 320" fill="none" xmlns="http://www.w3.org/2000/svg">
<path d="M160 134.8C173.734 134.8 184.934 146 184.934 160C184.934 173.333 173.734 184.667 160 184.667C146.267 184.667 135.067 173.333 135.067 160C135.067 146 146.267 134.8 160 134.8ZM98.267 266.667C106.667 271.733 125.067 264 146.267 244C139.334 236.133 132.534 227.6 126.134 218.667C115.389 217.638 104.707 216.036 94.1337 213.867C87.3337 242.4 89.867 262 98.267 266.667M107.734 190.133L103.867 183.333C102.4 187.2 100.934 191.067 100 194.8C103.6 195.6 107.6 196.267 111.734 196.933L107.734 190.133ZM194.934 180L205.734 160L194.934 140C190.934 132.933 186.667 126.667 182.8 120.4C175.6 120 168 120 160 120C152 120 144.4 120 137.2 120.4C133.334 126.667 129.067 132.933 125.067 140L114.267 160L125.067 180C129.067 187.067 133.334 193.333 137.2 199.6C144.4 200 152 200 160 200C168 200 175.6 200 182.8 199.6C186.667 193.333 190.934 187.067 194.934 180M160 90.4001C157.467 93.3334 154.8 96.4 152.134 100H167.867C165.2 96.4 162.534 93.3334 160 90.4001ZM160 229.6C162.534 226.667 165.2 223.6 167.867 220H152.134C154.8 223.6 157.467 226.667 160 229.6ZM221.6 53.3334C213.334 48.2667 194.934 56.0001 173.734 76C180.667 83.8667 187.467 92.4 193.867 101.333C204.8 102.4 215.6 104 225.867 106.133C232.667 77.6001 230.134 58.0001 221.6 53.3334ZM212.267 129.867L216.134 136.667C217.6 132.8 219.067 128.933 220 125.2C216.4 124.4 212.4 123.733 208.267 123.067L212.267 129.867M231.6 35.8667C251.2 47.0667 253.334 76.5334 245.067 110.933C278.934 120.933 303.334 137.467 303.334 160C303.334 182.533 278.934 199.067 245.067 209.067C253.334 243.467 251.2 272.933 231.6 284.133C212.134 295.333 185.6 282.533 160 258.133C134.4 282.533 107.867 295.333 88.267 284.133C68.8003 272.933 66.667 243.467 74.9337 209.067C41.067 199.067 16.667 182.533 16.667 160C16.667 137.467 41.067 120.933 74.9337 110.933C66.667 76.5334 68.8003 47.0667 88.267 35.8667C107.867 24.6667 134.4 37.4667 160 61.8667C185.6 37.4667 212.134 24.6667 231.6 35.8667ZM227.734 160C232.267 170 236.267 180 239.6 190.133C267.6 181.733 283.334 169.733 283.334 160C283.334 150.267 267.6 138.267 239.6 129.867C236.267 140 232.267 150 227.734 160ZM92.267 160C87.7337 150 83.7337 140 80.4003 129.867C52.4003 138.267 36.667 150.267 36.667 160C36.667 169.733 52.4003 181.733 80.4003 190.133C83.7337 180 87.7337 170 92.267 160ZM212.267 190.133L208.267 196.933C212.4 196.267 216.4 195.6 220 194.8C219.067 191.067 217.6 187.2 216.134 183.333L212.267 190.133M173.734 244C194.934 264 213.334 271.733 221.6 266.667C230.134 262 232.667 242.4 225.867 213.867C215.6 216 204.8 217.6 193.867 218.667C187.467 227.6 180.667 236.133 173.734 244M107.734 129.867L111.734 123.067C107.6 123.733 103.6 124.4 100 125.2C100.934 128.933 102.4 132.8 103.867 136.667L107.734 129.867ZM146.267 76C125.067 56.0001 106.667 48.2667 98.267 53.3334C89.867 58.0001 87.3337 77.6001 94.1337 106.133C104.707 103.964 115.389 102.362 126.134 101.333C132.534 92.4 139.334 83.8667 146.267 76V76Z" fill="black"/>
</svg>
