<svg width="321" height="320" viewBox="0 0 321 320" fill="none" xmlns="http://www.w3.org/2000/svg">
<g clip-path="url(#clip0_256_24)">
<path fill-rule="evenodd" clip-rule="evenodd" d="M280.46 90V280C280.46 290.609 276.246 300.783 268.744 308.284C261.243 315.786 251.069 320 240.46 320V300C245.764 300 250.851 297.893 254.602 294.142C258.353 290.391 260.46 285.304 260.46 280V90H220.46C212.503 90 204.873 86.8393 199.247 81.2132C193.621 75.5871 190.46 67.9565 190.46 60V20H80.46C75.1556 20 70.0686 22.1071 66.3178 25.8579C62.5671 29.6086 60.46 34.6957 60.46 40V220H40.46V40C40.46 29.3913 44.6742 19.2172 52.1757 11.7157C59.6771 4.21427 69.8513 0 80.46 0L190.46 0L280.46 90ZM0.459961 296.82C0.573225 299.972 1.34538 303.064 2.7267 305.899C4.10801 308.734 6.06785 311.249 8.47996 313.28C11.08 315.44 14.24 317.12 18.04 318.32C21.84 319.52 26.26 320.14 31.34 320.14C38.1 320.14 43.82 319.08 48.5 316.98C53.24 314.86 56.82 311.94 59.3 308.18C61.8221 304.275 63.1241 299.708 63.04 295.06C63.04 290.58 62.14 286.86 60.34 283.86C58.5101 280.863 55.9234 278.4 52.84 276.72C49.3037 274.765 45.4949 273.349 41.54 272.52L29.12 269.64C26.1852 269.105 23.4134 267.9 21.02 266.12C20.1099 265.415 19.3774 264.507 18.8808 263.469C18.3842 262.431 18.1373 261.291 18.16 260.14C18.16 257.02 19.38 254.46 21.84 252.46C24.34 250.44 27.76 249.42 32.1 249.42C34.96 249.42 37.42 249.86 39.5 250.78C41.4073 251.563 43.0907 252.807 44.4 254.4C45.6309 255.885 46.4576 257.662 46.8 259.56H61.8C61.5562 255.489 60.1775 251.568 57.82 248.24C55.2922 244.65 51.8354 241.816 47.82 240.04C42.9088 237.885 37.5808 236.847 32.22 237C26.36 237 21.18 238 16.7 240C12.2 241.98 8.69996 244.8 6.13996 248.42C3.59996 252.06 2.33996 256.32 2.33996 261.2C2.33996 265.22 3.13996 268.72 4.79996 271.68C6.43996 274.66 8.77996 277.08 11.82 279.02C14.88 280.92 18.46 282.36 22.62 283.28L34.98 286.16C39.12 287.14 42.18 288.42 44.22 290.02C45.2174 290.775 46.0169 291.761 46.5498 292.893C47.0827 294.026 47.3333 295.27 47.28 296.52C47.28 298.72 46.7 300.66 45.58 302.32C44.2905 304.087 42.51 305.436 40.46 306.2C38.24 307.14 35.48 307.6 32.2 307.6C29.86 307.6 27.72 307.34 25.8 306.8C24.0315 306.311 22.3557 305.534 20.84 304.5C19.5093 303.637 18.37 302.51 17.4927 301.189C16.6155 299.868 16.0189 298.381 15.74 296.82H0.459961V296.82ZM138.02 326.6L127.88 311.82C131.4 308.58 134.08 304.58 135.9 299.82C137.74 295.04 138.66 289.68 138.66 283.7V273.68C138.66 266.26 137.26 259.82 134.5 254.34C131.916 249.03 127.817 244.604 122.72 241.62C117.6 238.62 111.5 237.12 104.38 237.12C97.36 237.12 91.26 238.62 86.1 241.62C80.98 244.6 77.04 248.82 74.26 254.34C71.4013 260.378 69.9971 267.002 70.16 273.68V283.68C70.16 291.08 71.54 297.5 74.26 302.98C77.04 308.44 80.98 312.68 86.1 315.7C91.6921 318.774 98.0008 320.306 104.38 320.14C108.464 320.159 112.522 319.483 116.38 318.14L122.26 326.58H138.02V326.6ZM85.7 284V273.56C85.7 268.64 86.46 264.44 87.98 260.96C89.337 257.737 91.5936 254.974 94.48 253C97.4344 251.121 100.88 250.161 104.38 250.24C108.22 250.24 111.52 251.16 114.28 253C117.19 254.948 119.453 257.719 120.78 260.96C122.32 264.44 123.08 268.64 123.08 273.56V284C123.08 287.28 122.72 290.24 122.02 292.9C121.32 295.5 120.28 297.78 118.92 299.7L116.8 296.9L114.7 293.96H100.04L109.06 306.96C107.467 307.608 105.76 307.928 104.04 307.9C100.573 307.91 97.1823 306.886 94.3 304.96C91.4373 302.935 89.216 300.13 87.9 296.88C86.3258 292.773 85.5781 288.396 85.7 284V284ZM165.42 305.14H199.34V318.62H149.6V238.64H165.4V305.14H165.42Z" fill="black"/>
</g>
<defs>
<clipPath id="clip0_256_24">
<rect width="320" height="320" fill="white" transform="translate(0.459961)"/>
</clipPath>
</defs>
</svg>
