<svg width="320" height="320" viewBox="0 0 320 320" fill="none" xmlns="http://www.w3.org/2000/svg">
<g clip-path="url(#clip0_256_13)">
<path d="M0 160V320H320V0H0V160ZM257.86 147.24C265.531 149.046 272.503 153.066 277.91 158.8C280.83 161.92 285.2 167.65 285.57 169.06C285.67 169.48 271.77 178.8 263.33 184.01C263.02 184.22 261.77 182.92 260.41 180.88C256.3 174.89 251.97 172.29 245.36 171.82C235.67 171.19 229.42 176.25 229.47 184.74C229.419 186.817 229.883 188.875 230.82 190.73C232.96 195.16 236.97 197.81 249.36 203.18C272.28 213.02 282.07 219.53 288.16 228.75C294.98 239.06 296.49 255.52 291.91 267.81C286.81 281.09 274.2 290.15 256.49 293.12C251.02 294.11 238 293.95 232.11 292.86C219.25 290.57 207.06 284.21 199.56 275.88C196.59 272.65 190.86 264.16 191.23 263.59C191.39 263.38 192.69 262.55 194.15 261.71L206.03 254.83L215.25 249.47L217.18 252.33C219.89 256.44 225.77 262.07 229.32 263.94C239.53 269.36 253.54 268.58 260.47 262.38C263.28 260.04 264.85 256.44 264.64 252.8C264.64 249.1 264.17 247.44 262.24 244.67C259.74 241.13 254.69 238.11 240.26 231.86C223.75 224.72 216.61 220.35 210.16 213.32C206.1 208.693 203.097 203.236 201.36 197.33C200.16 192.8 199.85 181.44 200.79 176.91C204.18 160.92 216.26 149.83 233.6 146.55C239.23 145.46 252.35 145.87 257.87 147.23L257.86 147.24ZM182.76 160.63L182.86 173.7H141.19V292.09H111.71V173.7H70.1V160.89C70.1 153.75 70.26 147.82 70.46 147.66C70.62 147.45 95.93 147.35 126.66 147.4L182.6 147.56L182.76 160.63Z" fill="black"/>
</g>
<defs>
<clipPath id="clip0_256_13">
<rect width="320" height="320" fill="white"/>
</clipPath>
</defs>
</svg>
