<svg width="321" height="320" viewBox="0 0 321 320" fill="none" xmlns="http://www.w3.org/2000/svg">
<path fill-rule="evenodd" clip-rule="evenodd" d="M160.46 26.6666C86.9398 26.6666 27.1265 86.48 27.1265 160C27.1265 233.52 86.9398 293.333 160.46 293.333C233.98 293.333 293.793 233.52 293.793 160C293.793 86.48 233.98 26.6666 160.46 26.6666ZM160.46 287.227C90.3131 287.227 33.2465 230.147 33.2465 160C33.2465 89.8533 90.3131 32.7733 160.46 32.7733C230.606 32.7733 287.686 89.84 287.686 160C287.686 230.133 230.62 287.227 160.46 287.227M46.0865 160C46.0838 181.479 52.1289 202.526 63.5299 220.729C74.9309 238.933 91.2271 253.559 110.553 262.933L55.9798 113.467C49.4443 128.109 46.0731 143.965 46.0865 160M237.686 154.24C237.686 140.107 232.593 130.32 228.246 122.693C222.446 113.267 217.006 105.293 217.006 95.8666C217.006 85.36 224.98 75.5733 236.206 75.5733C236.726 75.5733 237.206 75.6266 237.7 75.6666C216.64 56.3047 189.068 45.572 160.46 45.6C141.502 45.5905 122.84 50.2984 106.156 59.2993C89.4714 68.3003 75.2889 81.3114 64.8865 97.16C67.5798 97.24 70.1131 97.2933 72.2598 97.2933C84.2198 97.2933 102.74 95.84 102.74 95.84C108.9 95.48 109.633 104.533 103.473 105.267C103.473 105.267 97.2731 106 90.3798 106.36L132.033 230.253L157.06 155.187L139.246 106.36C133.086 106 127.246 105.267 127.246 105.267C121.086 104.907 121.806 95.48 127.98 95.84C127.98 95.84 146.86 97.3066 158.1 97.3066C170.06 97.3066 188.58 95.84 188.58 95.84C194.753 95.48 195.473 104.533 189.313 105.267C189.313 105.267 183.113 106 176.22 106.36L217.553 229.307L228.98 191.187C233.913 175.36 237.673 164 237.673 154.213M162.473 169.987L128.153 269.72C151.194 276.516 175.79 275.877 198.446 267.893C198.126 267.389 197.85 266.858 197.62 266.307L162.473 169.987V169.987ZM260.833 105.107C261.326 108.76 261.606 112.667 261.606 116.867C261.606 128.467 259.433 141.52 252.9 157.84L217.966 258.853C235.269 248.795 249.627 234.372 259.607 217.024C269.586 199.676 274.836 180.013 274.833 160C274.865 140.819 270.049 121.942 260.833 105.12" fill="black"/>
</svg>
